<?xml version="1.0" encoding="UTF-8"?>
<svg version="1.1" xmlns="http://www.w3.org/2000/svg" width="500" height="500">
<path d="M0 0 C1.45058807 0.00273422 1.45058807 0.00273422 2.93048096 0.00552368 C17.25083496 0.05093019 31.22948336 0.50087789 45.3125 3.3125 C46.19309082 3.47878906 47.07368164 3.64507812 47.98095703 3.81640625 C70.05219015 8.06163007 91.15594423 15.41699983 111.3125 25.3125 C112.06112305 25.67988281 112.80974609 26.04726563 113.58105469 26.42578125 C146.97611361 43.02798006 178.65475674 68.87343284 200.3125 99.3125 C200.75851562 99.93012207 201.20453125 100.54774414 201.6640625 101.18408203 C216.90354314 122.37781505 229.55233259 145.31297333 237.3125 170.3125 C237.56483398 171.12154785 237.81716797 171.9305957 238.07714844 172.76416016 C240.9945088 182.24648288 243.56537104 191.78006354 245.5625 201.5 C245.71348145 202.2216333 245.86446289 202.9432666 246.02001953 203.68676758 C248.92961783 218.67595522 249.69331081 233.70857219 249.625 248.9375 C249.62284485 249.80957092 249.6206897 250.68164185 249.61846924 251.58013916 C249.56284038 265.66903096 248.95686015 279.43919023 246.3125 293.3125 C246.11914062 294.3334375 245.92578125 295.354375 245.7265625 296.40625 C237.86467676 336.3951009 221.24208867 373.74788634 195.3125 405.3125 C194.52359375 406.30378906 193.7346875 407.29507812 192.921875 408.31640625 C181.29246949 422.70444661 167.95847762 436.16114842 152.99853516 447.07080078 C151.26056168 448.35075055 149.55744373 449.66873438 147.85546875 450.99609375 C137.63987269 458.86478809 126.67210428 465.24146786 115.3125 471.3125 C114.55018066 471.72242188 113.78786133 472.13234375 113.00244141 472.5546875 C91.8295378 483.74923223 67.80852964 491.01786147 44.3125 495.3125 C43.49056152 495.47331055 42.66862305 495.63412109 41.82177734 495.79980469 C-18.56872887 507.25215875 -86.01287472 492.83784335 -136.77539062 458.63232422 C-159.79101718 442.74589966 -182.06536845 423.6800945 -198.50927734 400.93505859 C-199.69766421 399.29850262 -200.91767469 397.68988712 -202.14453125 396.08203125 C-227.36454047 362.52983548 -242.37585624 321.73001094 -247.6875 280.3125 C-247.77482895 279.64021866 -247.8621579 278.96793732 -247.95213318 278.27528381 C-248.62629531 272.70876596 -248.86136768 267.22150467 -248.890625 261.6171875 C-248.89768463 260.71532211 -248.90474426 259.81345673 -248.91201782 258.88426208 C-249.14146145 220.95739268 -249.14146145 220.95739268 -245.6875 204.3125 C-245.38150879 202.82194092 -245.38150879 202.82194092 -245.06933594 201.30126953 C-237.62916112 166.1201809 -224.15851716 132.3406203 -202.6875 103.3125 C-202.05545654 102.4472168 -202.05545654 102.4472168 -201.41064453 101.56445312 C-196.09668354 94.31870857 -190.3859403 87.60375344 -184.23046875 81.06640625 C-182.4411904 79.1287085 -180.75096959 77.20105979 -179.0859375 75.1640625 C-177.17452604 72.89153748 -175.38938229 71.01451811 -173.125 69.125 C-170.7318346 67.09591542 -168.40768862 65.04554366 -166.13671875 62.87890625 C-142.72094183 40.5642862 -113.01292496 24.16339367 -82.6875 13.3125 C-81.92050781 13.03712402 -81.15351563 12.76174805 -80.36328125 12.47802734 C-70.93634451 9.15899338 -61.39615615 6.65042704 -51.625 4.5625 C-50.70493164 4.36374268 -49.78486328 4.16498535 -48.83691406 3.96020508 C-32.63417559 0.67544762 -16.49146603 -0.06471205 0 0 Z " fill="#FEFEFE" transform="translate(248.6875,1.6875)"/>
<path d="M0 0 C1.45058807 0.00273422 1.45058807 0.00273422 2.93048096 0.00552368 C17.25083496 0.05093019 31.22948336 0.50087789 45.3125 3.3125 C46.19309082 3.47878906 47.07368164 3.64507812 47.98095703 3.81640625 C70.05219015 8.06163007 91.15594423 15.41699983 111.3125 25.3125 C112.06112305 25.67988281 112.80974609 26.04726563 113.58105469 26.42578125 C146.97611361 43.02798006 178.65475674 68.87343284 200.3125 99.3125 C200.75851562 99.93012207 201.20453125 100.54774414 201.6640625 101.18408203 C216.90354314 122.37781505 229.55233259 145.31297333 237.3125 170.3125 C237.56483398 171.12154785 237.81716797 171.9305957 238.07714844 172.76416016 C240.9945088 182.24648288 243.56537104 191.78006354 245.5625 201.5 C245.71348145 202.2216333 245.86446289 202.9432666 246.02001953 203.68676758 C248.92961783 218.67595522 249.69331081 233.70857219 249.625 248.9375 C249.62284485 249.80957092 249.6206897 250.68164185 249.61846924 251.58013916 C249.56284038 265.66903096 248.95686015 279.43919023 246.3125 293.3125 C246.11914062 294.3334375 245.92578125 295.354375 245.7265625 296.40625 C237.86467676 336.3951009 221.24208867 373.74788634 195.3125 405.3125 C194.52359375 406.30378906 193.7346875 407.29507812 192.921875 408.31640625 C181.29246949 422.70444661 167.95847762 436.16114842 152.99853516 447.07080078 C151.26056168 448.35075055 149.55744373 449.66873438 147.85546875 450.99609375 C137.63987269 458.86478809 126.67210428 465.24146786 115.3125 471.3125 C114.55018066 471.72242188 113.78786133 472.13234375 113.00244141 472.5546875 C91.8295378 483.74923223 67.80852964 491.01786147 44.3125 495.3125 C43.49056152 495.47331055 42.66862305 495.63412109 41.82177734 495.79980469 C-18.56872887 507.25215875 -86.01287472 492.83784335 -136.77539062 458.63232422 C-159.79101718 442.74589966 -182.06536845 423.6800945 -198.50927734 400.93505859 C-199.69766421 399.29850262 -200.91767469 397.68988712 -202.14453125 396.08203125 C-227.36454047 362.52983548 -242.37585624 321.73001094 -247.6875 280.3125 C-247.77482895 279.64021866 -247.8621579 278.96793732 -247.95213318 278.27528381 C-248.62629531 272.70876596 -248.86136768 267.22150467 -248.890625 261.6171875 C-248.89768463 260.71532211 -248.90474426 259.81345673 -248.91201782 258.88426208 C-249.14146145 220.95739268 -249.14146145 220.95739268 -245.6875 204.3125 C-245.38150879 202.82194092 -245.38150879 202.82194092 -245.06933594 201.30126953 C-237.62916112 166.1201809 -224.15851716 132.3406203 -202.6875 103.3125 C-202.05545654 102.4472168 -202.05545654 102.4472168 -201.41064453 101.56445312 C-196.09668354 94.31870857 -190.3859403 87.60375344 -184.23046875 81.06640625 C-182.4411904 79.1287085 -180.75096959 77.20105979 -179.0859375 75.1640625 C-177.17452604 72.89153748 -175.38938229 71.01451811 -173.125 69.125 C-170.7318346 67.09591542 -168.40768862 65.04554366 -166.13671875 62.87890625 C-142.72094183 40.5642862 -113.01292496 24.16339367 -82.6875 13.3125 C-81.92050781 13.03712402 -81.15351563 12.76174805 -80.36328125 12.47802734 C-70.93634451 9.15899338 -61.39615615 6.65042704 -51.625 4.5625 C-50.70493164 4.36374268 -49.78486328 4.16498535 -48.83691406 3.96020508 C-32.63417559 0.67544762 -16.49146603 -0.06471205 0 0 Z M-137.6875 104.3125 C-138.51072754 105.07892822 -138.51072754 105.07892822 -139.35058594 105.86083984 C-173.21679115 137.54717253 -197.57075189 185.58471639 -199.6875 232.3125 C-199.82465063 237.95865397 -199.87032837 243.60231665 -199.875 249.25 C-199.87608765 249.96196533 -199.87717529 250.67393066 -199.8782959 251.4074707 C-199.87633149 262.76832339 -199.46492949 273.86948944 -197.0625 285 C-196.80581543 286.1909729 -196.80581543 286.1909729 -196.54394531 287.40600586 C-192.66954579 304.74577756 -187.58452492 321.37835354 -179.6875 337.3125 C-179.34493164 338.01922852 -179.00236328 338.72595703 -178.64941406 339.45410156 C-156.37265045 385.10797219 -114.66450169 421.58620471 -66.82421875 438.453125 C-52.35885984 443.29088562 -37.83427217 446.46576576 -22.6875 448.3125 C-21.78386719 448.4259375 -20.88023437 448.539375 -19.94921875 448.65625 C-2.9699862 450.42543197 14.44641409 449.82153376 31.3125 447.3125 C32.08561523 447.1995459 32.85873047 447.0865918 33.65527344 446.97021484 C66.41014878 441.92528868 98.7887595 427.46118383 124.3125 406.3125 C124.8806543 405.84585937 125.44880859 405.37921875 126.03417969 404.8984375 C156.22675412 379.98498391 177.28709318 349.22028626 190.3125 312.3125 C190.56515625 311.62365723 190.8178125 310.93481445 191.078125 310.22509766 C195.68168529 297.62604827 197.51772035 284.55336468 199.3125 271.3125 C199.41997559 270.55582031 199.52745117 269.79914063 199.63818359 269.01953125 C200.48886897 262.41881495 200.46018519 255.83426086 200.4375 249.1875 C200.44136719 248.04667969 200.44523437 246.90585938 200.44921875 245.73046875 C200.93387272 235.38928229 200.93387272 235.38928229 196.875 226.4375 C194.26333518 224.27172917 193.11645628 223.43309344 189.8125 222.9375 C185.46772338 223.40301178 182.48014721 225.04327232 178.6796875 227.12109375 C172.27457439 230.34478929 164.41218197 230.37946108 157.55078125 228.59375 C155.03717344 227.63911794 152.69127157 226.56404881 150.3125 225.3125 C149.67570312 224.98507813 149.03890625 224.65765625 148.3828125 224.3203125 C143.43538531 221.30787906 140.88345684 216.95097559 137.98828125 212.03125 C134.92121372 206.88748188 134.92121372 206.88748188 130.3125 203.3125 C124.26686722 202.54071709 120.46881313 204.47672285 115.0546875 207.06640625 C102.85904436 212.60830107 87.74732209 211.58934823 75.3125 207.3125 C60.01799326 200.72711728 49.43793883 190.50059018 43 175.125 C36.99297204 159.60457933 37.88001095 144.47758024 44.3125 129.3125 C44.87710938 128.20841797 44.87710938 128.20841797 45.453125 127.08203125 C46.78395915 124.34172275 46.67972421 122.31149772 46.3125 119.3125 C43.72974853 114.70846477 40.04446092 112.93667227 35.55078125 110.5390625 C27.79337992 106.28806073 23.44177242 99.73879808 20.6640625 91.35546875 C18.9392279 81.33226327 20.60466308 73.04012162 25.44921875 64.25 C26.89125312 61.01357897 26.19478869 58.66519701 25.3125 55.3125 C22.9062107 52.14994835 21.44237773 50.56522537 17.53027344 49.69018555 C-39.18535157 43.03319982 -96.80596085 65.49270994 -137.6875 104.3125 Z " fill="#FEFEFE" transform="translate(248.6875,1.6875)"/>
<path d="M0 0 C1.88114502 -0.01401855 1.88114502 -0.01401855 3.80029297 -0.02832031 C17.67449896 0.02036768 17.67449896 0.02036768 23.1875 3.9375 C25.5179238 7.25387233 25.87832951 9.16857014 25.8125 13.25 C24.72620755 15.93062282 23.459109 18.39917118 22.0390625 20.91796875 C18.58360981 27.48773071 18.76296613 35.96190447 20.49609375 43.04296875 C23.97921808 52.3650235 28.78834382 58.12667248 37.46875 62.9375 C40.8529698 64.83266309 44.04999801 66.72499602 45.8125 70.25 C46.28811437 75.36851654 44.88354867 79.26039391 42.875 83.875 C36.76612532 98.27550272 37.18001389 112.95832167 43.02539062 127.43652344 C49.69072838 142.79326316 60.26998824 152.04668498 75.5546875 158.4375 C88.62245573 163.14008787 103.56156483 162.84808828 116.2421875 157.16015625 C117.00789063 156.79792969 117.77359375 156.43570313 118.5625 156.0625 C122.48511752 154.2482894 125.44224657 153.57765332 129.8125 154.25 C134.66546101 156.85402786 136.68543312 161.23658729 139.3515625 165.8515625 C143.40008458 172.49806666 149.69415101 176.28442434 156.5625 179.5625 C165.97366976 181.55332437 174.14968189 180.32137592 182.8125 176.25 C184.2975 175.26 184.2975 175.26 185.8125 174.25 C190.45617999 173.74525218 193.07962024 174.45034018 196.8125 177.25 C205.72574064 190.61986096 199.75124296 217.90086075 197.20947266 232.86621094 C196.85517525 234.99373854 196.54904542 237.12044842 196.26171875 239.2578125 C190.3242055 277.95262676 168.66532974 313.51612164 141.8125 341.25 C141.10480469 341.99765625 140.39710938 342.7453125 139.66796875 343.515625 C134.44498352 348.91944679 128.72824523 353.62550881 122.8125 358.25 C122.28333984 358.67152344 121.75417969 359.09304688 121.20898438 359.52734375 C104.5782628 372.69903158 85.74403946 382.15551805 65.8125 389.25 C65.03342285 389.53069336 64.2543457 389.81138672 63.45166016 390.10058594 C46.94241465 395.95414594 29.36440091 399.8078382 11.8125 400.25 C11.00796387 400.27046387 10.20342773 400.29092773 9.37451172 400.31201172 C-13.05502476 400.79882318 -35.30143396 399.3436624 -56.8125 392.625 C-57.94550537 392.27236084 -59.07851074 391.91972168 -60.24584961 391.55639648 C-69.92047463 388.46953781 -79.10194196 384.77161043 -88.1875 380.25 C-89.27514648 379.71439453 -89.27514648 379.71439453 -90.38476562 379.16796875 C-118.65276505 365.12083295 -143.61131031 343.77469635 -162.1875 318.25 C-162.60064453 317.68651855 -163.01378906 317.12303711 -163.43945312 316.54248047 C-187.97499518 282.64571536 -200.4491495 241.82833126 -200.375 200.1875 C-200.37373108 199.45467804 -200.37246216 198.72185608 -200.37115479 197.96682739 C-200.26363882 165.38460422 -192.70941703 134.99902809 -177.1875 106.25 C-176.86668457 105.64849121 -176.54586914 105.04698242 -176.21533203 104.42724609 C-171.24291558 95.16678337 -165.50652477 86.63406554 -159.1875 78.25 C-158.5378125 77.3734375 -157.888125 76.496875 -157.21875 75.59375 C-146.23543495 61.47234494 -132.87693197 48.45915522 -118.1875 38.25 C-117.10398549 37.4637913 -116.02065731 36.67732575 -114.9375 35.890625 C-98.60235911 24.29067778 -80.31215715 15.15614412 -61.1875 9.25 C-59.71702865 8.74470805 -58.24699606 8.23813795 -56.77734375 7.73046875 C-38.44774615 1.60890563 -19.18657859 0.10004175 0 0 Z M-30.1875 21.25 C-31.36183594 21.42144531 -32.53617188 21.59289062 -33.74609375 21.76953125 C-59.56748849 26.2314222 -83.86505671 37.24733898 -105.1875 52.25 C-105.76161621 52.65299316 -106.33573242 53.05598633 -106.92724609 53.47119141 C-120.52094745 63.15564571 -133.23150065 74.83757823 -143.1875 88.25 C-143.58098633 88.76852539 -143.97447266 89.28705078 -144.37988281 89.82128906 C-173.82881526 128.72693248 -186.13087195 176.1106674 -180.10913086 224.52270508 C-177.11320088 245.65436045 -170.73287929 265.19351566 -161.1875 284.25 C-160.87232422 284.88164062 -160.55714844 285.51328125 -160.23242188 286.1640625 C-150.12243261 305.99099609 -134.76938095 325.50198747 -117.1875 339.25 C-116.64432129 339.67845215 -116.10114258 340.1069043 -115.54150391 340.54833984 C-90.34042815 360.31479471 -62.69436889 373.26152409 -31.1875 379.25 C-30.06214844 379.476875 -28.93679687 379.70375 -27.77734375 379.9375 C17.9917776 387.6459836 67.20998431 374.83905398 104.8125 348.25 C143.98353028 319.81063457 170.44016932 277.83086874 178.78466797 230.07641602 C180.58100796 218.75581827 181.34495175 207.69771263 180.8125 196.25 C180.22984375 196.4665625 179.6471875 196.683125 179.046875 196.90625 C167.56692763 200.80510005 156.93438804 200.13378109 145.8125 195.25 C137.60352569 190.35435038 129.26615219 183.89532484 124.8125 175.25 C123.595625 175.518125 122.37875 175.78625 121.125 176.0625 C120.29484375 176.24167969 119.4646875 176.42085937 118.609375 176.60546875 C116.71308013 177.04246408 114.82702222 177.52598763 112.953125 178.05078125 C93.50079249 183.25946419 74.23427831 180.27969898 56.703125 170.6328125 C39.69980864 160.60543301 28.95304085 145.75268581 22.8125 127.25 C22.47347656 126.28964844 22.13445312 125.32929688 21.78515625 124.33984375 C17.3327237 109.75145877 19.15103506 94.47776449 23.8125 80.25 C24.16003579 78.92029787 24.50082508 77.58856178 24.8125 76.25 C23.94367188 75.48816406 23.07484375 74.72632813 22.1796875 73.94140625 C10.47277755 63.51962849 1.64724622 52.93983808 0.65625 36.6875 C0.44301409 30.29042278 1.36180693 25.15792079 3.8125 19.25 C-7.69621888 18.99072974 -18.80264969 19.52350622 -30.1875 21.25 Z " fill="#030303" transform="translate(249.1875,50.75)"/>
<path d="M0 0 C5.851948 4.62533881 10.41185563 10.28244189 12.7890625 17.4140625 C13.77418245 28.23630878 12.40918781 35.79499118 5.4765625 44.2265625 C-3.60810427 51.62105871 -10.59744914 53.22700669 -22.2109375 52.4140625 C-29.40600212 50.84250891 -34.8606391 47.35431767 -39.2109375 41.4140625 C-43.80936227 34.0145668 -45.4676276 27.06862641 -44.2109375 18.4140625 C-42.05156225 10.36086305 -36.69358674 3.2540335 -29.5234375 -1.0234375 C-20.46862055 -5.29457757 -8.4652915 -5.67523288 0 0 Z " fill="#020202" transform="translate(169.2109375,207.5859375)"/>
<path d="M0 0 C4.8244793 4.21606361 8.7186191 9.79558374 9.47265625 16.26953125 C9.74477584 23.54349711 8.5371634 28.98190762 4.19921875 34.921875 C1.72339661 37.28983954 -0.85148549 39.18630533 -3.80078125 40.921875 C-4.42339844 41.29699219 -5.04601562 41.67210937 -5.6875 42.05859375 C-11.1725759 44.29926246 -18.5363197 43.62741369 -24.11328125 41.859375 C-30.71945252 38.94164936 -35.09520351 33.48349609 -37.80078125 26.921875 C-38.6539994 20.39475613 -39.16797271 13.2113568 -35.73828125 7.359375 C-26.76687304 -4.27304412 -12.86816461 -8.7031065 0 0 Z " fill="#020202" transform="translate(315.80078125,322.078125)"/>
<path d="M0 0 C5.28394267 2.94844001 8.91543295 7.80879886 10.8125 13.5 C11.35078279 19.85173692 10.48667245 24.22049683 6.8125 29.5 C2.45304979 34.21776119 -2.13120975 36.53693065 -8.5 36.875 C-13.42742711 36.73562186 -17.23373154 35.46317287 -21.1875 32.5 C-26.28404251 26.93553672 -27.61032236 21.83171328 -27.53125 14.359375 C-26.99106359 9.86600622 -25.19721953 6.82323198 -22.1875 3.5 C-15.44428277 -1.75970944 -8.03641895 -3.50820597 0 0 Z " fill="#040404" transform="translate(381.1875,52.5)"/>
<path d="M0 0 C5.50401546 2.27376248 9.0572799 6.43756549 11.375 11.859375 C12.88244042 17.02235842 12.90393168 21.84005419 10.4375 26.6875 C7.40944344 31.32691523 3.27491739 35.2416942 -2 37 C-8.66192539 37.75336798 -13.81509686 37.48788095 -19.34375 33.5 C-23.18716518 30.01917116 -25.73707617 25.93766815 -26.203125 20.73046875 C-26.30179435 15.37765656 -26.18418241 11.51948472 -23 7 C-15.78845968 -0.09468666 -10.19648274 -1.15157645 0 0 Z " fill="#030303" transform="translate(180,309)"/>
<path d="M0 0 C4.30013456 2.34414415 7.13629284 5.47509238 9 10 C9.45989183 14.7522156 9.52078851 16.99699991 7.3125 21.25 C1.92793092 27.65327134 1.92793092 27.65327134 -2.51953125 28.453125 C-7.52778597 28.75457946 -11.08387265 28.54044294 -15.0625 25.3125 C-18.21612467 22.0605609 -19.92915075 19.5411263 -20.05859375 14.8984375 C-19.75255328 8.99481808 -18.20572886 6.10559246 -14 2 C-9.52226307 -0.98515795 -5.24406002 -0.84841138 0 0 Z " fill="#060606" transform="translate(221,156)"/>
<path d="M0 0 C4.93918408 2.61486216 8.48734878 5.97469756 11 11 C11.55004295 16.72044663 10.64364029 19.56854559 7 24 C3.57821024 27.01443384 1.3864387 28.86407464 -3.1875 29.3125 C-7.72939085 28.94021386 -10.52263776 27.92649297 -14 25 C-16.78709592 21.68827426 -17.88864558 18.77948091 -18.5 14.5 C-17.79425962 9.55981733 -16.29815093 5.93408742 -12.421875 2.671875 C-8.31546396 0.04525172 -4.91147681 -0.71439663 0 0 Z " fill="#060606" transform="translate(362,127)"/>
<path d="M0 0 C3.70236803 1.84411843 5.71795457 4.57693186 8 8 C8.58663955 12.49503031 8.5496803 16.66919506 6.8125 20.875 C3.14727719 25.17215777 -0.08788514 27.84065709 -5.75 28.3125 C-10.15478248 28.25654088 -12.59716161 26.84888795 -16 24 C-19.51767087 19.99713315 -20.3539022 16.40504203 -20.28515625 11.0625 C-19.71020193 6.90392628 -17.22064082 4.12653855 -14.2265625 1.36328125 C-9.91293648 -1.27786872 -4.8650178 -0.70893976 0 0 Z " fill="#030303" transform="translate(250,242)"/>
<path d="M0 0 C2.75329021 1.79562405 4.52627461 3.05254922 6 6 C6.41204834 10.63554388 5.87454146 13.30416098 3 17 C0.3259797 19.10101595 -1.04284685 18.99846976 -4.5 18.875 C-8.29736911 17.92565772 -9.61471502 17.02747709 -12 14 C-13.58939347 10.82121306 -13.41576711 8.5043228 -13 5 C-9.01929983 0.43675834 -6.21272714 -1.01662808 0 0 Z " fill="#070707" transform="translate(443,156)"/>
</svg>
